<svg width="117" height="57" viewBox="0 0 117 57" xmlns="http://www.w3.org/2000/svg"><path d="M21.496 2.645c0-1.25.566-1.836 1.7-1.758 2.89.156 5.78.37 8.671.644 1.758.469 1.953 1.25.586 2.344-.586.313-.879.566-.879.762.04.234.528.351 1.465.351h5.742c1.016.469 2.207-.312 3.574-2.343 1.094-1.172 2.227-1.329 3.399-.47l1.758 1.407c1.172.938 1.66 1.621 1.465 2.05-.391.587-.176 1.212.644 1.876l4.277 3.222c1.797.938 2.598 2.051 2.403 3.34-.664.547-1.953.723-3.867.528-.938 0-1.797.293-2.579.879l-1.875 1.406c-1.25.976-2.011 1.406-2.285 1.289-.351-.195-.449-.879-.293-2.05l.41-3.4c.04-.937-.41-1.406-1.347-1.406H42.12c-.937 0-.86.489.234 1.465l.586.469c1.329 1.094 1.817 1.914 1.465 2.46-.312.509-1.035.763-2.168.763H12.766c-1.172 0-1.875-.274-2.11-.82-.234-.548.235-.821 1.406-.821h23.204c.937 0 1.914-.586 2.93-1.758.898-1.172.878-1.758-.06-1.758H10.07c-.937 0-1.367.586-1.289 1.758.235 2.578-.234 4.551-1.406 5.918-.938.781-2.11 1.094-3.516.938-2.422-.118-3.515-1.563-3.28-4.336.273-1.172 1.171-2.246 2.694-3.223 1.563-.937 2.579-2.187 3.047-3.75.313-1.172.625-1.758.938-1.758.234 0 .488.489.762 1.465.234.899.82 1.348 1.757 1.348h10.254c.977 0 1.465-.469 1.465-1.406V2.645zM46.75 8.21c.938-1.055.938-1.582 0-1.582H33.04c-.978 0-1.466.488-1.466 1.465 0 1.054.469 1.582 1.406 1.582h11.016c.938 0 1.856-.488 2.754-1.465zM10.129 19.754c.976-1.524 2.012-1.895 3.105-1.113l3.985 2.812c.39.39.625.684.703.879.078.313.547-.078 1.406-1.172l.938-1.23c1.015-1.29 2.05-1.856 3.105-1.7l8.672 1.348c1.289.274 1.582.86.879 1.758-1.25.664-1.309 1.289-.176 1.875 3.633 1.523 7.813 2.734 12.54 3.633.937.117.859-.41-.235-1.582-1.875-1.992-4.278-3.653-7.207-4.98-1.328-.626-1.914-1.094-1.758-1.407.312-.469 1.113-.645 2.402-.527 3.125.156 6.25.449 9.375.879 1.992.351 3.614.957 4.864 1.816.43 2.187-.547 4.16-2.93 5.918-.664.312-.547.508.351.586l4.278.527c1.445.156 2.168.41 2.168.762 0 .312-.508.957-1.524 1.934-.86 1.054-1.62 2.812-2.285 5.273-.273 1.172-.996 1.602-2.168 1.289l-2.285-.703c-1.055-.352-1.582.02-1.582 1.113v15.645c0 1.172-.586 1.836-1.758 1.992l-6.445.703c-1.367.117-2.05-.234-2.05-1.055 0-.859-.47-1.289-1.407-1.289H20.324c-.976 0-1.465.332-1.465.996 0 .704-.586 1.153-1.757 1.348l-6.036.879c-1.328.195-1.992-.234-1.992-1.29V37.274c0-.937-.586-1.23-1.758-.878l-4.687 1.23c-1.172.273-1.914.352-2.227.234-.234-.273.293-.761 1.582-1.464 4.727-2.5 9.551-6.407 14.473-11.72.742-.937.86-1.405.352-1.405s-1.153.312-1.934.937c-3.75 3.125-7.656 4.844-11.719 5.156-1.484.196-2.265.196-2.344 0-.117-.234.45-.82 1.7-1.758 3.554-2.695 6.093-5.312 7.617-7.851zm19.629 5.976c-.664-.937-1.602-.898-2.813.118-2.03 1.718-4.53 3.515-7.5 5.39-1.172.664-1.64 1.074-1.406 1.23.352.196.938.294 1.758.294h14.707c.937 0 1.543-.176 1.816-.528.235-.351-.273-.918-1.523-1.699-2.149-1.68-3.828-3.281-5.04-4.805zm6.738 10.02c0-.977-.469-1.465-1.406-1.465H20.324c-.976 0-1.465.469-1.465 1.406v2.051c0 .977.47 1.465 1.407 1.465H35.03c.977 0 1.465-.469 1.465-1.406V35.75zm0 6.68c0-1.055-.43-1.582-1.289-1.582H20.324c-.976 0-1.465.468-1.465 1.406v2.11c0 .976.47 1.464 1.407 1.464H35.03c.977 0 1.465-.469 1.465-1.406V42.43zm0 6.504c0-1.016-.45-1.524-1.348-1.524H20.324c-.976 0-1.465.469-1.465 1.406v1.875c0 .977.47 1.465 1.407 1.465H35.03c.977 0 1.465-.468 1.465-1.406v-1.816zm54.61-46.23c0-1.25.566-1.837 1.699-1.759l4.043.235c1.836.039 3.144.175 3.925.41.196.117.918.176 2.168.176 1.524 0 2.97.156 4.336.468 2.852.938 3.38 2.598 1.582 4.98-.586.704-.488.684.293-.058l.645-.761c1.133-1.329 2.344-1.485 3.633-.47l.761.645c1.485 1.133 2.07 1.953 1.758 2.461-.351.586-1.074.88-2.168.88h-12.597c-.977 0-1.465.468-1.465 1.405v1.641c0 .977.547 1.465 1.64 1.465 1.133 0 2.286-.488 3.457-1.465l.586-.469c1.094-.898 2.266-.937 3.516-.117l3.516 2.402c1.445 1.133 2.148 1.797 2.109 1.993-.078.195-.43.527-1.055.996-.703.351-1.054.976-1.054 1.875V31.12c0 1.172-.586 1.856-1.758 2.05-1.29.274-1.758.528-1.406.763.625.586.41 1.191-.645 1.816-.586.352-.879.742-.879 1.172 0 .469.293.703.879.703.625 0 1.328-.586 2.11-1.758l.41-.586c.859-1.328 1.972-1.289 3.34.117 1.406 1.407 1.992 2.383 1.757 2.93-.39.586-1.172.879-2.344.879h-4.687c-.977 0-1.465.469-1.465 1.406v10.313c.313 2.187-.527 3.828-2.52 4.922-1.367.547-3.515.859-6.445.937-1.172.04-1.875-.527-2.11-1.7-.234-1.913-1.327-3.593-3.28-5.038-1.25-.625-1.914-1.035-1.993-1.23-.078-.391.45-.587 1.582-.587h3.692c.976 0 1.465-.468 1.465-1.406v-6.152c0-.977-.469-1.465-1.407-1.465H82.55c-1.327 0-1.347.273-.058.82 2.735.938 4.922 2.188 6.563 3.75 2.304 3.516 1.718 6.504-1.758 8.965-1.758.899-3.262.469-4.512-1.289-.625-1.406-.937-2.969-.937-4.687-.118-1.485-.606-3.047-1.465-4.688-.781-1.25-1.074-2.031-.88-2.344.118-.351-.292-.527-1.23-.527h-1.289c-1.172 0-1.875-.215-2.109-.645-.234-.625.176-.937 1.23-.937h20.567c.976 0 1.465-.332 1.465-.996 0-.703-.586-.996-1.758-.879a35.898 35.898 0 0 0-3.516.41c-1.172.117-1.758-.41-1.758-1.582v-2.11c0-.976-.527-1.464-1.582-1.464-1.132 0-1.699.45-1.699 1.348 0 .937-.586 1.523-1.758 1.757l-5.273.82c-1.406.196-2.11-.292-2.11-1.464V19.812c0-.976-.468-1.464-1.406-1.464h-1.875c-.976 0-1.465.468-1.465 1.406v34.101c0 1.172-.585 1.856-1.757 2.051a86.134 86.134 0 0 0-5.332.645c-1.172.117-1.758-.41-1.758-1.582V19.812c0-.976-.469-1.464-1.406-1.464h-.996c-1.172 0-1.875-.215-2.11-.645-.273-.625.117-.937 1.172-.937h1.875c.977 0 1.465-.47 1.465-1.407V3.113c0-1.172.586-1.738 1.758-1.699l6.445.469c1.172.078 2.05.254 2.637.527.664.703.332 1.348-.996 1.934-.664.312-.996.937-.996 1.875v8.086c0 1.25.43 1.328 1.289.234.742-1.094 1.484-1.27 2.226-.527.82.82 1.23.586 1.23-.703 0-1.25.587-1.7 1.758-1.348l6.446 2.226c.43.157 1.23.235 2.402.235 1.211 0 1.816-.469 1.816-1.406v-1.641c0-.977-.468-1.465-1.406-1.465H78.391c-1.172 0-1.875-.215-2.11-.644-.273-.625.117-.938 1.172-.938h12.188c.976 0 1.464-.469 1.464-1.406V2.703zm11.19.76c-.624-.624-1.19-.702-1.698-.234-.586.313-.88.938-.88 1.875v1.758c0 .977.47 1.465 1.407 1.465h1.758c.937 0 1.113-.586.527-1.758 0-1.21-.37-2.246-1.113-3.105zm-11.19 14.063c0-1.015-.528-1.523-1.583-1.523-1.132 0-1.699.469-1.699 1.406v2.813c0 .976.528 1.465 1.582 1.465 1.133 0 1.7-.47 1.7-1.407v-2.754zm11.953 0c0-1.015-.528-1.523-1.582-1.523-1.172 0-1.758.469-1.758 1.406v2.813c0 .976.547 1.465 1.64 1.465 1.133 0 1.7-.47 1.7-1.407v-2.754zm-11.954 7.325c0-1.055-.507-1.582-1.523-1.582-1.172 0-1.758.468-1.758 1.406v3.222c0 .977.528 1.465 1.582 1.465 1.133 0 1.7-.468 1.7-1.406v-3.105zm11.954 0c0-1.055-.528-1.582-1.582-1.582-1.172 0-1.758.468-1.758 1.406v3.222c0 .977.547 1.465 1.64 1.465 1.133 0 1.7-.468 1.7-1.406v-3.105zm0 7.441c0-.86-.528-1.29-1.582-1.29-1.172 0-1.758.333-1.758.997 0 .703.508 1.074 1.523 1.113 1.211.04 1.817-.234 1.817-.82z" fill="#2f3542" fill-rule="nonzero"/></svg>